<svg width="24.000000" height="24.000000" viewBox="0 0 24 24" fill="none" xmlns="http://www.w3.org/2000/svg" xmlns:xlink="http://www.w3.org/1999/xlink">
	<desc>
			Created with Pixso.
	</desc>
	<defs>
		<clipPath id="clip5_2071">
			<rect id="svg" width="24.000000" height="24.000000" fill="white" fill-opacity="0"/>
		</clipPath>
	</defs>
	<g clip-path="url(#clip5_2071)">
		<g opacity="0.000000">
			<rect id="rect" width="24.000000" height="24.000000" fill="#000000" fill-opacity="1.000000"/>
		</g>
		<path id="path" d="M16.37 12.12C15.82 10.24 15.27 8.37 14.71 6.5L14.66 6.38C14.48 5.74 14.26 5.32 13.99 5.14L13.8 4.58C13.65 4.1 13.49 3.62 13.33 3.14C13.16 2.66 13 2.23 12.86 1.87C12.78 1.69 12.67 1.56 12.54 1.46C12.4 1.36 12.23 1.32 12.02 1.32C11.6 1.32 11.31 1.5 11.14 1.87C10.91 2.31 10.54 3.4 10.03 5.14C9.83 5.26 9.69 5.42 9.61 5.62C9.52 5.8 9.43 6.05 9.36 6.36L9.31 6.5C8.75 8.37 8.18 10.24 7.63 12.12C7.26 13.44 6.94 14.94 6.66 16.62C6.38 18.29 6.14 19.85 5.95 21.29L5.89 21.6C5.88 21.88 5.97 22.13 6.17 22.34C6.36 22.55 6.58 22.66 6.84 22.66L17.14 22.66C17.4 22.66 17.64 22.55 17.84 22.33C18.04 22.11 18.11 21.87 18.07 21.6C17.93 20.49 17.81 19.59 17.7 18.91C17.33 16.25 16.88 13.99 16.37 12.12ZM9.73 10.3C10.51 10.1 11.25 10.01 11.96 10.01C12.67 10.01 13.43 10.09 14.23 10.27L14.35 10.61C14.39 10.77 14.44 10.93 14.5 11.11C13.63 11.01 12.78 10.97 11.95 10.97C11.11 10.97 10.29 11.01 9.48 11.11C9.52 10.97 9.57 10.82 9.62 10.68L9.73 10.3ZM11.23 6.24C11.39 5.76 11.55 5.28 11.71 4.8L12 3.91C12.17 4.43 12.3 4.83 12.38 5.09C12.46 5.34 12.59 5.72 12.77 6.24L13.08 6.38C13.2 6.76 13.32 7.15 13.44 7.54L13.92 9.19C13.26 9.07 12.62 9.02 12 9.02C11.37 9.02 10.73 9.08 10.08 9.22C10.27 8.58 10.41 8.1 10.5 7.78C10.58 7.46 10.72 6.98 10.9 6.36L11.23 6.24ZM7.48 21.14C7.7 19.27 8 17.38 8.38 15.48C8.58 14.45 8.79 13.53 9.01 12.72C9.84 12.56 10.81 12.48 11.93 12.48C13.05 12.48 14.02 12.54 14.86 12.67C15.34 14.35 15.78 16.48 16.2 19.06C16.24 19.37 16.35 20.07 16.51 21.14L7.48 21.14Z" fill="#FFFFFF" fill-opacity="1.000000" fill-rule="nonzero"/>
	</g>
</svg>
