<svg width="24.000000" height="24.000000" viewBox="0 0 24 24" fill="none" xmlns="http://www.w3.org/2000/svg" xmlns:xlink="http://www.w3.org/1999/xlink">
	<desc>
			Created with Pixso.
	</desc>
	<defs>
		<clipPath id="clip5_2220">
			<rect id="svg" width="24.000000" height="24.000000" fill="white" fill-opacity="0"/>
		</clipPath>
	</defs>
	<g clip-path="url(#clip5_2220)">
		<g opacity="0.000000">
			<rect id="rect" width="24.000000" height="24.000000" fill="#000000" fill-opacity="0.600000"/>
		</g>
		<path id="path" d="M3 11.26C2.79 11.26 2.61 11.32 2.47 11.46C2.33 11.59 2.26 11.77 2.26 12C2.26 12.2 2.33 12.38 2.47 12.53C2.61 12.67 2.79 12.74 3 12.74L21 12.74C21.22 12.74 21.4 12.67 21.54 12.53C21.67 12.38 21.74 12.2 21.74 12C21.74 11.77 21.67 11.59 21.54 11.46C21.4 11.32 21.22 11.26 21 11.26L3 11.26Z" fill="#000000" fill-opacity="0.600000" fill-rule="nonzero"/>
	</g>
</svg>
