<svg width="24.000000" height="24.000000" viewBox="0 0 24 24" fill="none" xmlns="http://www.w3.org/2000/svg" xmlns:xlink="http://www.w3.org/1999/xlink">
	<desc>
			Created with Pixso.
	</desc>
	<defs>
		<clipPath id="clip5_982">
			<rect id="svg" width="24.000000" height="24.000000" fill="white" fill-opacity="0"/>
		</clipPath>
	</defs>
	<g clip-path="url(#clip5_982)">
		<g opacity="0.000000">
			<rect id="rect" width="24.000000" height="24.000000" fill="#000000" fill-opacity="1.000000"/>
		</g>
		<path id="path" d="M16.99 12.98C16.89 12.69 16.83 12.48 16.79 12.34L16.03 9.64C15.99 9.45 15.98 9.3 15.98 9.18L15.98 7.98C15.98 7.7 15.91 7.43 15.78 7.17C15.64 6.92 15.46 6.7 15.24 6.54L15.24 4.48C15.24 3.91 15.09 3.37 14.8 2.88C14.5 2.38 14.1 1.98 13.61 1.69C13.11 1.39 12.57 1.25 12 1.25C11.4 1.25 10.86 1.39 10.37 1.69C9.87 1.98 9.47 2.38 9.18 2.88C8.9 3.37 8.76 3.91 8.76 4.48L8.76 6.54C8.52 6.73 8.33 6.94 8.21 7.19C8.08 7.43 8.02 7.7 8.02 7.98L8.02 9.26C8.02 9.42 7.99 9.57 7.94 9.72L7.13 12.58C7.03 12.91 6.91 13.25 6.77 13.61L4.99 17.64C4.77 17.79 4.6 18 4.48 18.24C4.36 18.48 4.3 18.73 4.3 19.01L4.3 21.72C4.3 22 4.4 22.25 4.6 22.46C4.8 22.67 5.05 22.78 5.35 22.78L18.65 22.78C18.95 22.78 19.2 22.67 19.4 22.46C19.6 22.25 19.7 22 19.7 21.72L19.7 19.01C19.7 18.72 19.63 18.45 19.5 18.19C19.36 17.93 19.18 17.73 18.95 17.57L17.11 13.3L16.99 12.98ZM10.25 4.48C10.25 4.01 10.42 3.6 10.76 3.26C11.1 2.92 11.52 2.76 12 2.76C12.48 2.76 12.88 2.92 13.22 3.26C13.56 3.6 13.73 4.01 13.73 4.48L13.73 6.23L10.25 6.23L10.25 4.48ZM8.14 14.21C8.3 13.84 8.44 13.44 8.57 13.01L9.38 10.13C9.46 9.89 9.5 9.6 9.5 9.26L9.5 7.98C9.5 7.91 9.53 7.84 9.59 7.79C9.64 7.75 9.7 7.73 9.77 7.73L14.23 7.73C14.29 7.73 14.35 7.75 14.4 7.79C14.44 7.84 14.47 7.91 14.47 7.98L14.47 9.18C14.47 9.45 14.51 9.73 14.59 10.06L15.36 12.72C15.44 13.04 15.57 13.42 15.77 13.87L17.2 17.26L6.79 17.26L8.14 14.21ZM5.78 21.26L5.78 19.01C5.78 18.93 5.8 18.87 5.86 18.83C5.9 18.79 5.97 18.77 6.05 18.77L17.95 18.77C18.03 18.77 18.09 18.79 18.12 18.83C18.17 18.87 18.19 18.93 18.19 19.01L18.21 21.26L5.78 21.26Z" fill="#B3B3B3" fill-opacity="1.000000" fill-rule="nonzero"/>
	</g>
</svg>
