<svg width="24.000000" height="24.000000" viewBox="0 0 24 24" fill="none" xmlns="http://www.w3.org/2000/svg" xmlns:xlink="http://www.w3.org/1999/xlink">
	<desc>
			Created with Pixso.
	</desc>
	<defs>
		<clipPath id="clip4_893">
			<rect id="svg" width="24.000000" height="24.000000" fill="white" fill-opacity="0"/>
		</clipPath>
	</defs>
	<g clip-path="url(#clip4_893)">
		<g opacity="0.000000">
			<rect id="rect" width="24.000000" height="24.000000" fill="#000000" fill-opacity="1.000000"/>
		</g>
		<path id="path" d="M22.99 20.28C22.94 18.31 22.44 16.48 21.49 14.78C20.53 13.08 19.23 11.68 17.59 10.57C15.94 9.45 14.08 8.73 12.02 8.41L12.02 4.55C12.02 4.2 11.92 3.88 11.74 3.59C11.54 3.31 11.29 3.09 10.97 2.94C10.65 2.8 10.32 2.76 9.97 2.8C9.64 2.85 9.35 2.99 9.1 3.23L1.66 9.97C1.44 10.17 1.27 10.4 1.16 10.67C1.04 10.93 0.97 11.2 0.97 11.5C0.97 11.78 1.04 12.06 1.16 12.32C1.27 12.58 1.44 12.82 1.66 13.03L9.12 19.73C9.39 19.95 9.69 20.09 10.02 20.15C10.34 20.2 10.67 20.16 10.99 20.04C11.31 19.87 11.56 19.66 11.75 19.37C11.93 19.1 12.02 18.78 12.02 18.43L12.02 14.88L12.19 14.88C13.5 14.88 14.76 15.11 15.97 15.58C17.17 16.04 18.25 16.7 19.2 17.57C20.16 18.43 20.92 19.45 21.5 20.64C21.6 20.8 21.73 20.91 21.9 20.99C22.06 21.06 22.24 21.07 22.42 21.02C22.59 20.97 22.73 20.88 22.84 20.75C22.94 20.61 22.99 20.45 22.99 20.28ZM10.54 9.73L11.21 9.81C12.6 9.95 13.95 10.34 15.26 10.98C16.57 11.61 17.73 12.46 18.74 13.52C19.75 14.58 20.49 15.81 20.95 17.2C19.75 15.88 18.29 14.88 16.6 14.22C14.89 13.55 13.1 13.28 11.23 13.42L10.54 13.46L10.54 18.43C10.54 18.51 10.51 18.57 10.46 18.62C10.41 18.67 10.35 18.7 10.28 18.7C10.21 18.7 10.15 18.67 10.1 18.62L2.66 11.9C2.53 11.79 2.47 11.66 2.47 11.5C2.47 11.34 2.53 11.2 2.66 11.09L10.1 4.37C10.16 4.3 10.24 4.28 10.34 4.3C10.44 4.32 10.49 4.37 10.51 4.45L10.54 9.73Z" fill="#B3B3B3" fill-opacity="1.000000" fill-rule="nonzero"/>
	</g>
</svg>
