<svg width="24.000000" height="24.000000" viewBox="0 0 24 24" fill="none" xmlns="http://www.w3.org/2000/svg" xmlns:xlink="http://www.w3.org/1999/xlink">
	<desc>
			Created with Pixso.
	</desc>
	<defs>
		<clipPath id="clip2_21">
			<rect id="svg" width="24.000000" height="24.000000" fill="white" fill-opacity="0"/>
		</clipPath>
	</defs>
	<g clip-path="url(#clip2_21)">
		<g opacity="0.000000">
			<rect id="rect" width="24.000000" height="24.000000" fill="#000000" fill-opacity="1.000000"/>
		</g>
		<path id="path" d="M16.25 2.08C15.86 1.72 15.41 1.46 14.89 1.32C14.37 1.19 13.85 1.19 13.34 1.31C12.83 1.44 12.38 1.7 12 2.08L2.08 12C1.7 12.38 1.44 12.84 1.32 13.36C1.19 13.88 1.19 14.39 1.32 14.9C1.44 15.41 1.7 15.86 2.08 16.25L7.75 21.89C8.14 22.29 8.6 22.55 9.13 22.68C9.64 22.8 10.16 22.8 10.68 22.67C11.19 22.53 11.63 22.27 12 21.89L21.89 12C22.27 11.61 22.53 11.16 22.67 10.64C22.8 10.12 22.8 9.6 22.67 9.09C22.53 8.58 22.27 8.13 21.89 7.74L16.25 2.08ZM10.94 20.83C10.64 21.13 10.28 21.29 9.88 21.29C9.46 21.29 9.1 21.13 8.81 20.83L3.17 15.17C2.86 14.88 2.71 14.53 2.71 14.11C2.71 13.69 2.86 13.34 3.17 13.06L5.23 10.97L13.03 18.77L10.94 20.83ZM14.09 17.69L6.31 9.9L13.06 3.16C13.36 2.86 13.71 2.7 14.12 2.7C14.53 2.7 14.89 2.86 15.19 3.16L20.83 8.8C21.13 9.1 21.29 9.46 21.29 9.87C21.29 10.28 21.13 10.64 20.83 10.94L14.09 17.69Z" fill="#B3B3B3" fill-opacity="1.000000" fill-rule="nonzero"/>
		<path id="path" d="M21.19 22.42C21.39 22.42 21.57 22.34 21.73 22.2C21.88 22.05 21.96 21.87 21.96 21.67C21.96 21.46 21.88 21.28 21.73 21.14C21.57 21 21.39 20.93 21.19 20.93L15.96 20.93C15.75 20.93 15.57 21 15.43 21.14C15.29 21.28 15.22 21.46 15.22 21.67C15.22 21.87 15.29 22.05 15.43 22.2C15.57 22.34 15.75 22.42 15.96 22.42L21.19 22.42Z" fill="#B3B3B3" fill-opacity="1.000000" fill-rule="nonzero"/>
	</g>
</svg>
